HIERARCHY
ROOT Head
{
	OFFSET 0 0 0
	CHANNELS 6 Xposition Yposition Zposition Zrotation Xrotation Yrotation
	JOINT Brows_Inner_Up
	{
		OFFSET -11.000 0 0
		CHANNELS 3 Zrotation Xrotation Yrotation
		End Site
		{
			OFFSET 0 0 10
		}
	}
	JOINT Brows_Inner_Down
	{
		OFFSET -9.000 0 0
		CHANNELS 3 Zrotation Xrotation Yrotation
		End Site
		{
			OFFSET 0 0 10
		}
	}
	JOINT Brows_Outer_Up
	{
		OFFSET -7.000 0 0
		CHANNELS 3 Zrotation Xrotation Yrotation
		End Site
		{
			OFFSET 0 0 10
		}
	}
	JOINT Brows_Outer_Down
	{
		OFFSET -5.000 0 0
		CHANNELS 3 Zrotation Xrotation Yrotation
		End Site
		{
			OFFSET 0 0 10
		}
	}
	JOINT Lip_Stretch
	{
		OFFSET -3.000 0 0
		CHANNELS 3 Zrotation Xrotation Yrotation
		End Site
		{
			OFFSET 0 0 10
		}
	}
	JOINT Lip_Kiss
	{
		OFFSET -1.000 0 0
		CHANNELS 3 Zrotation Xrotation Yrotation
		End Site
		{
			OFFSET 0 0 10
		}
	}
	JOINT Lip_Corners_Up
	{
		OFFSET 1.000 0 0
		CHANNELS 3 Zrotation Xrotation Yrotation
		End Site
		{
			OFFSET 0 0 10
		}
	}
	JOINT Lip_Corners_Down
	{
		OFFSET 3.000 0 0
		CHANNELS 3 Zrotation Xrotation Yrotation
		End Site
		{
			OFFSET 0 0 10
		}
	}
	JOINT Upper_Lip_Up
	{
		OFFSET 5.000 0 0
		CHANNELS 3 Zrotation Xrotation Yrotation
		End Site
		{
			OFFSET 0 0 10
		}
	}
	JOINT Upper_Lip_Down
	{
		OFFSET 7.000 0 0
		CHANNELS 3 Zrotation Xrotation Yrotation
		End Site
		{
			OFFSET 0 0 10
		}
	}
	JOINT Jaw_Open
	{
		OFFSET 9.000 0 0
		CHANNELS 3 Zrotation Xrotation Yrotation
		End Site
		{
			OFFSET 0 0 10
		}
	}
}
MOTION
Frames:	19
Frame Time:	0.0333333
2.489450 -1.990370 -98.497322 0.788957 1.922775 2.940469 0 12.300405 0 0 -0.000000 0 0 -3.135300 0 0 8.984952 0 0 71.881119 0 0 -0.000000 0 0 4.542004 0 0 -0.000081 0 0 3.750084 0 0 -0.000000 0 0 18.966770 0
2.493448 -1.989223 -98.492111 0.779368 1.922291 2.908299 0 13.059425 0 0 -0.000000 0 0 -2.029539 0 0 8.640846 0 0 71.461227 0 0 -0.000000 0 0 4.413422 0 0 -0.000039 0 0 4.349265 0 0 -0.000000 0 0 18.964458 0
2.504532 -1.987450 -98.490593 0.781618 1.919165 2.818696 0 14.083862 0 0 -0.000000 0 0 -0.661537 0 0 7.607243 0 0 70.372116 0 0 -0.000000 0 0 4.261437 0 0 -0.000009 0 0 5.599818 0 0 -0.000000 0 0 19.013435 0
2.508334 -1.986935 -98.490929 0.784292 1.917976 2.787925 0 14.322227 0 0 -0.000000 0 0 -0.354066 0 0 7.317196 0 0 70.073227 0 0 -0.000000 0 0 4.227951 0 0 -0.000004 0 0 5.929261 0 0 -0.000000 0 0 19.029367 0
2.510915 -1.986600 -98.491325 0.786434 1.917148 2.767025 0 14.454871 0 0 -0.000000 0 0 -0.184699 0 0 7.147870 0 0 69.899658 0 0 -0.000000 0 0 4.209618 0 0 -0.000002 0 0 6.118736 0 0 -0.000000 0 0 19.038958 0
2.513627 -1.986263 -98.491837 0.788961 1.916261 2.745068 0 14.563120 0 0 -0.000000 0 0 -0.047676 0 0 7.004208 0 0 69.752968 0 0 -0.000000 0 0 4.194861 0 0 -0.000000 0 0 6.277618 0 0 -0.000000 0 0 19.047291 0
2.514265 -1.986187 -98.491989 0.789604 1.916049 2.739906 0 14.582142 0 0 -0.000000 0 0 -0.023766 0 0 6.978170 0 0 69.726471 0 0 -0.000000 0 0 4.192297 0 0 -0.000000 0 0 6.306155 0 0 -0.000000 0 0 19.048822 0
2.514648 -1.986141 -98.492073 0.790001 1.915922 2.736808 0 14.591742 0 0 -0.000000 0 0 -0.011735 0 0 6.964864 0 0 69.712936 0 0 -0.000000 0 0 4.191010 0 0 -0.000000 0 0 6.320685 0 0 -0.000000 0 0 19.049622 0
2.659550 -2.040316 -98.531136 0.551347 1.630125 1.791921 0 12.123978 0 0 -0.000000 0 0 1.386972 0 0 -1.282951 0 0 64.243927 0 0 -0.000000 0 0 -1.225206 0 0 1.577416 0 0 4.640786 0 0 -0.000000 0 0 18.157482 0
2.663616 -2.030135 -98.542572 0.537107 1.696593 1.754111 0 12.988869 0 0 -0.000000 0 0 1.631626 0 0 -1.879809 0 0 64.378670 0 0 -0.000000 0 0 -1.017967 0 0 0.700922 0 0 4.484131 0 0 -0.000000 0 0 17.897791 0
2.609344 -2.034754 -98.469391 0.693827 1.537267 2.043428 0 37.137165 0 0 -0.000000 0 0 27.222330 0 0 -0.908167 0 0 64.813293 0 0 -0.000000 0 0 -0.395121 0 0 10.948050 0 0 -0.843821 0 0 1.673123 0 0 17.987400 0
2.643002 -2.033658 -98.456345 0.781822 1.383974 1.830200 0 43.249577 0 0 -0.000000 0 0 29.650148 0 0 -0.527364 0 0 63.935997 0 0 -0.000000 0 0 -0.220326 0 0 13.631487 0 0 -1.504897 0 0 2.775550 0 0 19.592497 0
2.652210 -2.032183 -98.454727 0.804675 1.351338 1.775618 0 42.719078 0 0 -0.000000 0 0 28.214169 0 0 -0.290724 0 0 63.832153 0 0 -0.000000 0 0 -0.118281 0 0 13.455781 0 0 -1.183533 0 0 2.841945 0 0 19.908560 0
2.652517 -2.030927 -98.456619 0.804183 1.359803 1.777656 0 41.003895 0 0 -0.000000 0 0 26.430162 0 0 -0.154860 0 0 63.916363 0 0 -0.000000 0 0 -0.061837 0 0 12.754247 0 0 -0.760438 0 0 2.678459 0 0 19.867981 0
2.647771 -2.029391 -98.461258 0.790021 1.394794 1.813119 0 38.622314 0 0 -0.000000 0 0 24.293262 0 0 -0.041093 0 0 64.083221 0 0 -0.000000 0 0 -0.016009 0 0 11.764291 0 0 -0.246267 0 0 2.406458 0 0 19.685204 0
2.645774 -2.028992 -98.462807 0.784317 1.407561 1.827253 0 38.062382 0 0 -0.000000 0 0 23.819637 0 0 -0.020682 0 0 64.126694 0 0 -0.000000 0 0 -0.007989 0 0 11.530197 0 0 -0.131583 0 0 2.338699 0 0 19.631525 0
2.643411 -2.028592 -98.464516 0.777644 1.422100 1.843748 0 37.581993 0 0 -0.000000 0 0 23.421949 0 0 -0.005075 0 0 64.165237 0 0 -0.000000 0 0 -0.001936 0 0 11.328957 0 0 -0.035054 0 0 2.279422 0 0 19.582262 0
2.642809 -2.028501 -98.464920 0.775956 1.425714 1.847911 0 37.494190 0 0 -0.000000 0 0 23.350447 0 0 -0.002483 0 0 64.172470 0 0 -0.000000 0 0 -0.000942 0 0 11.292116 0 0 -0.017667 0 0 2.268431 0 0 19.572819 0
2.570173 -2.011863 -98.605682 0.626457 1.472634 2.247175 0 39.080524 0 0 -0.000000 0 0 16.452759 0 0 -0.001207 0 0 51.222301 0 0 -0.000000 0 0 -0.000456 0 0 8.908771 0 0 -0.008801 0 0 5.763185 0 0 17.698568 0
